<?xml version="1.0" encoding="UTF-8" standalone="no"?>
<!-- Created with Inkscape (http://www.inkscape.org/) -->

<svg
   xmlns:dc="http://purl.org/dc/elements/1.1/"
   xmlns:cc="http://creativecommons.org/ns#"
   xmlns:rdf="http://www.w3.org/1999/02/22-rdf-syntax-ns#"
   xmlns:svg="http://www.w3.org/2000/svg"
   xmlns="http://www.w3.org/2000/svg"
   xmlns:sodipodi="http://sodipodi.sourceforge.net/DTD/sodipodi-0.dtd"
   xmlns:inkscape="http://www.inkscape.org/namespaces/inkscape"
   width="50mm"
   height="50mm"
   viewBox="0 0 177.16535 177.16535"
   id="svg2"
   version="1.1"
   inkscape:version="0.91 r13725"
   sodipodi:docname="QRoboticsCenterLogo_blue.svg"
   inkscape:export-filename="C:\Users\mieke\Documents\maarten\QRoboticsCenter\icons\QRoboticsCenterLogo_blue.png"
   inkscape:export-xdpi="130"
   inkscape:export-ydpi="130">
  <defs
     id="defs4" />
  <sodipodi:namedview
     id="base"
     pagecolor="#ffffff"
     bordercolor="#666666"
     borderopacity="1.0"
     inkscape:pageopacity="0.0"
     inkscape:pageshadow="2"
     inkscape:zoom="2.1273229"
     inkscape:cx="-32.768868"
     inkscape:cy="86.201962"
     inkscape:document-units="px"
     inkscape:current-layer="layer2"
     showgrid="false"
     inkscape:window-width="1280"
     inkscape:window-height="738"
     inkscape:window-x="-8"
     inkscape:window-y="-8"
     inkscape:window-maximized="1" />
  <metadata
     id="metadata7">
    <rdf:RDF>
      <cc:Work
         rdf:about="">
        <dc:format>image/svg+xml</dc:format>
        <dc:type
           rdf:resource="http://purl.org/dc/dcmitype/StillImage" />
        <dc:title />
      </cc:Work>
    </rdf:RDF>
  </metadata>
  <g
     inkscape:groupmode="layer"
     id="layer2"
     inkscape:label="background"
     style="display:inline">
    <rect
       id="rect4150"
       width="177.16534"
       height="177.16534"
       x="0"
       y="-5.166361e-006"
       style="fill:#a8a7f7;fill-opacity:1;stroke:none;stroke-opacity:1" />
  </g>
  <g
     inkscape:label="Layer 1"
     inkscape:groupmode="layer"
     id="layer1"
     transform="translate(0,-875.19685)">
    <g
       id="g4207"
       style="font-style:normal;font-variant:normal;font-weight:normal;font-stretch:normal;font-size:124.99999237px;line-height:125%;font-family:'DejaVu Sans';-inkscape-font-specification:'DejaVu Sans';letter-spacing:0px;word-spacing:0px;fill:#0000ff;fill-opacity:1;stroke:#316eff;stroke-width:2.99999976;stroke-linecap:butt;stroke-linejoin:miter;stroke-miterlimit:4;stroke-dasharray:none;stroke-opacity:1" />
    <g
       id="g4211"
       style="font-style:normal;font-variant:normal;font-weight:normal;font-stretch:normal;font-size:124.99999237px;line-height:125%;font-family:'DejaVu Sans';-inkscape-font-specification:'DejaVu Sans';letter-spacing:0px;word-spacing:0px;fill:#0000ff;fill-opacity:1;stroke:#316eff;stroke-width:2.99999976;stroke-linecap:butt;stroke-linejoin:miter;stroke-miterlimit:4;stroke-dasharray:none;stroke-opacity:1" />
    <g
       id="g4253"
       transform="translate(4.2572305,1.6256211)"
       style="stroke:#e5f0ff;stroke-opacity:1;fill:#2577aa;fill-opacity:1">
      <g
         id="text3340"
         style="font-style:normal;font-variant:normal;font-weight:normal;font-stretch:normal;font-size:124.99999237px;line-height:125%;font-family:'DejaVu Sans';-inkscape-font-specification:'DejaVu Sans';letter-spacing:0px;word-spacing:0px;fill:#2577aa;fill-opacity:1;stroke:#e5f0ff;stroke-width:2.99999976;stroke-linecap:butt;stroke-linejoin:miter;stroke-miterlimit:4;stroke-dasharray:none;stroke-opacity:1">
        <path
           id="path4183"
           d="m 116.30884,984.70813 q 3.96728,1.34278 7.69043,5.73731 3.78418,4.39453 7.56836,12.08496 l 12.5122,24.9023 -13.24463,0 -11.65771,-23.3764 q -4.5166,-9.1553 -8.78906,-12.14602 -4.21143,-2.99072 -11.535645,-2.99072 l -13.427734,0 0,38.51314 -12.329101,0 0,-91.12544 27.83203,0 q 15.625,0 23.31543,6.53076 7.69043,6.53076 7.69043,19.71435 0,8.60596 -4.02832,14.28223 -3.96729,5.67627 -11.59668,7.87353 z m -30.883789,-38.26904 0,32.34863 15.502929,0 q 8.91113,0 13.42773,-4.08935 4.57764,-4.15039 4.57764,-12.146 0,-7.9956 -4.57764,-12.02392 -4.5166,-4.08936 -13.42773,-4.08936 l -15.502929,0 z"
           inkscape:connector-curvature="0"
           style="stroke:#e5f0ff;stroke-opacity:1;fill:#2577aa;fill-opacity:1" />
      </g>
      <g
         id="text3336"
         style="font-style:normal;font-variant:normal;font-weight:normal;font-stretch:normal;font-size:124.99999237px;line-height:125%;font-family:'DejaVu Sans';-inkscape-font-specification:'DejaVu Sans';letter-spacing:0px;word-spacing:0px;fill:#2577aa;fill-opacity:1;stroke:#e5f0ff;stroke-width:2.99999976;stroke-linecap:butt;stroke-linejoin:miter;stroke-miterlimit:4;stroke-dasharray:none;stroke-opacity:1">
        <path
           sodipodi:nodetypes="scscscccccccsccscscscscscscs"
           inkscape:connector-curvature="0"
           id="path4186"
           transform="translate(0,875.19685)"
           d="m 66.207031,9.9355469 c -12.817383,0 -23.071289,4.2932921 -30.761719,12.8789061 -7.649739,8.544921 -11.474609,20.019534 -11.474609,34.423828 0,14.363608 3.82487,25.838214 11.474609,34.423828 7.69043,8.544921 17.944336,12.816411 30.761719,12.816411 0.651042,0 1.32194,-0.0199 2.013672,-0.0606 0.732422,-0.0407 1.770508,-0.10221 3.113281,-0.18359 l 13.488282,14.58789 14.892578,0 -16.234375,-17.76172 c 8.05664,-3.58073 14.199869,-9.134439 18.431641,-16.662112 2.16513,-3.814753 3.77974,-8.022619 4.84766,-12.621094 -1.73616,-0.476907 -3.69656,-0.535156 -5.83204,-0.535156 l -7.199214,0 C 92.429837,76.3751 90.338741,80.782948 87.447266,84.458934 82.238932,91.132108 75.158854,94.4687 66.207031,94.4687 c -8.951823,0 -16.071615,-3.336592 -21.361328,-10.009766 -5.249024,-6.67318 -7.875,-15.746095 -7.875,-27.220703 0,-11.515301 2.625976,-20.610029 7.875,-27.283203 5.289713,-6.67318 12.409505,-10.009766 21.361328,-10.009766 8.951823,0 16.031901,3.336586 21.240235,10.009766 5.249023,6.673174 7.873046,15.767902 7.873046,27.283203 0,1.324526 -0.03943,2.612498 -0.109374,3.873047 l 5.716792,0 c 2.58583,0 5.00772,0.134054 7.26758,0.402344 0.0808,-1.397107 0.12696,-2.820575 0.12696,-4.275391 0,-14.404294 -3.82487,-25.878907 -11.474614,-34.423828 C 89.197917,14.228839 78.983724,9.9355469 66.207031,9.9355469 Z"
           style="stroke:#e5f0ff;stroke-opacity:1;fill:#2577aa;fill-opacity:1" />
      </g>
      <g
         id="text3344"
         style="font-style:normal;font-variant:normal;font-weight:normal;font-stretch:normal;font-size:124.99999237px;line-height:125%;font-family:'DejaVu Sans';-inkscape-font-specification:'DejaVu Sans';letter-spacing:0px;word-spacing:0px;fill:#2577aa;fill-opacity:1;stroke:#e5f0ff;stroke-width:2.99999976;stroke-linecap:butt;stroke-linejoin:miter;stroke-miterlimit:4;stroke-dasharray:none;stroke-opacity:1">
        <path
           d="m 85.425781,947.43513 0,10.89453 c 4.122808,1.89156 8.023277,4.54508 11.699219,7.96875 l 0,-13 c -3.670175,-2.50559 -7.569942,-4.45952 -11.699219,-5.86328 z m -17.292969,-2.80469 c -13.793945,0 -24.657226,4.23178 -32.591796,12.69532 -7.93457,8.42285 -11.902344,19.95898 -11.902344,34.60742 0,14.60782 3.967774,26.14392 11.902344,34.60742 7.93457,8.4229 18.797851,12.6348 32.591796,12.6348 5.371094,0 10.458334,-0.7324 15.259766,-2.1973 4.842123,-1.4649 9.419271,-3.6621 13.732422,-6.5918 l 0,-12.8789 c -4.15039,3.8655 -8.584635,6.7536 -13.304688,8.666 -4.679362,1.9124 -9.665365,2.8692 -14.955078,2.8692 -10.416667,0 -18.391927,-3.1739 -23.925781,-9.5215 -5.533854,-6.3884 -8.300781,-15.5843 -8.300781,-27.58792 0,-12.04427 2.766927,-21.24023 8.300781,-27.58789 5.533854,-6.38835 13.509114,-9.58203 23.925781,-9.58203 1.433186,0 2.842088,0.0764 4.230469,0.21679 l 0,-10.1289 c -1.62406,-0.14012 -3.276557,-0.22071 -4.962891,-0.22071 z"
           id="path4242"
           inkscape:connector-curvature="0"
           style="stroke:#e5f0ff;stroke-opacity:1;fill:#2577aa;fill-opacity:1" />
      </g>
      <g
         id="text4225"
         style="font-style:normal;font-variant:normal;font-weight:normal;font-stretch:normal;font-size:124.99999237px;line-height:125%;font-family:'DejaVu Sans';-inkscape-font-specification:'DejaVu Sans';letter-spacing:0px;word-spacing:0px;fill:#2577aa;fill-opacity:1;stroke:#e5f0ff;stroke-width:2.99999976;stroke-linecap:butt;stroke-linejoin:miter;stroke-miterlimit:4;stroke-dasharray:none;stroke-opacity:1" />
    </g>
    <g
       id="g4229"
       style="font-style:normal;font-variant:normal;font-weight:normal;font-stretch:normal;font-size:124.99999237px;line-height:125%;font-family:'DejaVu Sans';-inkscape-font-specification:'DejaVu Sans';letter-spacing:0px;word-spacing:0px;fill:#0000ff;fill-opacity:1;stroke:#316eff;stroke-width:2.99999976;stroke-linecap:butt;stroke-linejoin:miter;stroke-miterlimit:4;stroke-dasharray:none;stroke-opacity:1" />
  </g>
</svg>
